<?xml version="1.0" encoding="utf-8"?>
<!-- Generator: Adobe Illustrator 24.1.2, SVG Export Plug-In . SVG Version: 6.00 Build 0)  -->
<svg version="1.1" id="Layer_1" xmlns="http://www.w3.org/2000/svg" xmlns:xlink="http://www.w3.org/1999/xlink" x="0px" y="0px"
	 viewBox="0 0 259 198.1" style="enable-background:new 0 0 259 198.1;" xml:space="preserve">
<g>
	<g>
		<path d="M202.4,0h-2.1H90.2c-2.1,0-3.9,1.7-3.9,3.9v24.8L70.8,1.9c-0.7-1.2-2-1.9-3.4-1.9s-2.7,0.7-3.4,1.9L0.5,112.1
			c-0.7,1.2-0.7,2.7,0,3.9s2,1.9,3.4,1.9h86.3h40.9h69.2c32.3,0,58.6-26.3,58.6-58.6C259,27.7,233.7,1.2,202.4,0z M204.2,110
			c-1.3,0.1-2.6,0.2-3.9,0.2l0,0c-1.3,0-2.6-0.1-3.9-0.2c-26.2-2-47-24-47-50.7s20.7-48.7,47-50.7c1.3-0.1,2.6-0.2,3.9-0.2l0,0
			c1.3,0,2.6,0.1,3.9,0.2c26.2,2,47,24,47,50.7S230.4,108,204.2,110z M133.3,110.1h-4.5h-4.5H94.1V57.7v-7.8v-7.8V7.8h78.3
			c-18.2,9.9-30.6,29.3-30.6,51.5c0,21.7,11.9,40.7,29.5,50.9H133.3z M67.5,11.7l18.8,32.6v65.9H10.6L67.5,11.7z"/>
		<g>
			<path d="M21.3,198.1c-8.5,0-12.6-4.8-12.6-11.4c0-7.7,5.1-9.8,7.7-10.2v-0.2c-2.7-0.2-6.2-2.9-6.2-8.7c0-5.1,4-8.8,8.9-8.8
				c5.1,0,7.7,2.4,8.2,4.5h0.3v-3.8h4.8v8.3c0,5.8-3.4,8.2-6.1,8.5v0.3c2.4,0.3,7.6,2.4,7.6,10.1C33.8,193.6,29.4,198.1,21.3,198.1z
				 M21.3,179.2c-3.4,0-7.7,1.6-7.7,7.1c0,4.4,2.5,7.4,7.7,7.4c5,0,7.7-3,7.7-7.3C28.9,180.7,24.7,179.2,21.3,179.2z M27.6,169.1
				c0-3.3-2-5.9-6.5-5.9c-3.8,0-6.1,2.1-6.1,5.8c0,3.5,2.5,5.8,6.3,5.8C25.5,174.8,27.6,172.2,27.6,169.1L27.6,169.1z"/>
			<path d="M64.2,175.4H43.3c0.3,5,3.4,8,8.6,8h8.9v4.5H52c-8.7,0-13.9-5.2-13.9-14.7c0-9.7,5.6-14.3,13.4-14.3
				c8.3,0,12.9,4.8,12.8,14C64.3,173.6,64.2,175.4,64.2,175.4z M51.4,163.2c-4.7,0-8,2.8-8.3,7.7h16.1
				C59.3,166.1,56.7,163.2,51.4,163.2z"/>
			<path d="M82.1,188.5c-8.5,0-13.8-5.3-13.8-14.8c0-9.9,5.8-14.8,13.8-14.8c8.6,0,13.5,5.3,13.5,14.8
				C95.6,183.4,90.1,188.5,82.1,188.5z M90.8,173.6c0-7-3-10.4-8.7-10.4c-5.2,0-8.8,3.3-8.8,10.4c0,7,3.5,10.4,8.8,10.4
				C86.9,184.1,90.7,180.8,90.8,173.6L90.8,173.6L90.8,173.6z"/>
			<path d="M139.2,187.8v-15.6c0-5.9-2.1-9-7-9c-4.6,0-7.2,2.9-7.2,9v15.6h-4.9v-15.6c0-5.9-2.1-9-7-9c-4.6,0-7.1,2.9-7.1,9v15.6
				H101v-15.6c0-9.2,4.1-13.4,11.8-13.4c5.6,0,9,3.1,9.8,6.4c0.8-3.4,4.2-6.4,9.9-6.4c8.1,0,11.6,4.8,11.6,13.4v15.6H139.2z"/>
			<path d="M175.7,175.4h-20.9c0.3,5,3.4,8,8.6,8h8.9v4.5h-8.9c-8.7,0-13.9-5.2-13.9-14.7c0-9.7,5.6-14.3,13.4-14.3
				c8.3,0,12.9,4.8,12.8,14C175.8,173.6,175.7,175.4,175.7,175.4z M162.9,163.2c-4.7,0-8,2.8-8.3,7.7h16.1
				C170.8,166.1,168.2,163.2,162.9,163.2z"/>
			<path d="M191.2,187.8c-6,0-9.7-2.7-9.7-9.7v-28.4h4.9v9.7h7.7v4.4h-7.7v13.5c0,4.4,2.2,6,5.9,6h1.8v4.5L191.2,187.8L191.2,187.8z
				"/>
			<path d="M210,163.9c-3.8,0-5.9,1.6-5.9,6v17.9h-4.9v-18.7c0-7,3.6-9.7,9.7-9.7h4.8v4.4L210,163.9L210,163.9z"/>
			<path d="M218.4,156.6v-6.8h4.9v6.8H218.4z M218.4,187.8v-28.4h4.9v28.3L218.4,187.8L218.4,187.8z"/>
			<path d="M244,187.8c-9.2,0-14.6-4.7-14.6-14.2c0-9.8,6-14.2,14.6-14.2h6.2v4.4H244c-5.6,0-9.7,2.9-9.7,9.8c0,6.6,3.8,9.7,9.7,9.7
				h6.3v4.5L244,187.8L244,187.8z"/>
		</g>
	</g>
</g>
</svg>
