<svg width="866.0254037844386" height="1000" xmlns="http://www.w3.org/2000/svg" xmlns:xlink="http://www.w3.org/1999/xlink"><polygon class="hex" points="866.0254037844386,249.99999999999994,433.0127018922193,-1.1368683772161603e-13,433.0127018922192,333.50000000000006,577.2059316223282,416.7500000000001,866.0254037844386,249.99999999999994" fill="#0c2c84"/><polygon class="hex" points="433.0127018922193,-1.1368683772161603e-13,-5.684341886080802e-14,249.9999999999998,288.8194721621101,416.75,433.0127018922192,333.50000000000006,433.0127018922193,-1.1368683772161603e-13" fill="#225ea8"/><polygon class="hex" points="-5.684341886080802e-14,249.9999999999998,-1.1368683772161603e-13,749.9999999999998,288.81947216211006,583.25,288.8194721621101,416.75,-5.684341886080802e-14,249.9999999999998" fill="#1d91c0"/><polygon class="hex" points="-1.1368683772161603e-13,749.9999999999998,433.01270189221907,999.9999999999999,433.0127018922191,666.5,288.81947216211006,583.25,-1.1368683772161603e-13,749.9999999999998" fill="#41b6c4"/><polygon class="hex" points="433.01270189221907,999.9999999999999,866.0254037844386,750.0000000000002,577.2059316223282,583.2500000000002,433.0127018922191,666.5,433.01270189221907,999.9999999999999" fill="#7fcdbb"/><polygon class="hex" points="866.0254037844386,750.0000000000002,866.0254037844386,416.5,288.38645946021836,416.50000000000006,866.0254037844386,750.0000000000002" fill="#c7e9b4"/></svg>